<svg width="121" height="30" viewBox="0 0 121 30" fill="none" xmlns="http://www.w3.org/2000/svg">
<path d="M1.26941 21.8666H2.53881C3.80822 18.0584 12.5127 16.6076 13.7821 24.0427H28.2896C30.8284 19.3278 33.9113 17.1517 39.8956 20.9599C39.8956 20.9599 40.2945 17.74 39.5329 16.0636C38.3136 13.3794 33.1859 13.1621 33.1859 13.1621L30.4657 4.09491H33.5486C33.5486 4.09491 31.3611 0.40063 29.1963 0.286691C25.7508 0.105345 10.0636 -0.537263 5.803 1.01207C3.80822 1.73745 1.45075 4.32572 1.45075 9.35388C1.45075 14.382 1.26941 12.6675 1.26941 17.6957C1.26941 17.6957 0 17.7004 0 18.2397C0 18.9651 0.0267709 20.1334 0.36269 21.1412C0.544031 21.6852 0.906718 21.8666 1.26941 21.8666Z" fill="#00A63E"/>
<path d="M11.7873 11.8927V3.91357C11.7873 3.91357 8.34182 3.91357 7.4351 4.27625C6.65315 4.58903 6.16568 5.727 5.803 6.81507C5.28691 8.36341 5.30892 9.97282 5.98434 10.986C7.07238 12.6181 11.7873 11.8927 11.7873 11.8927Z" fill="white"/>
<path d="M14.8702 12.4367V3.91357H27.2016L30.2844 14.6128L25.9321 20.5972H21.5799C20.9917 14.8909 19.7715 12.7953 14.8702 12.4367Z" fill="white"/>
<path d="M12.6941 24.9494C12.6941 27.6536 10.5019 29.8457 7.79778 29.8457C5.09364 29.8457 2.9015 27.6536 2.9015 24.9494C2.9015 22.2453 5.09364 20.0532 7.79778 20.0532C10.5019 20.0532 12.6941 22.2453 12.6941 24.9494ZM6.19954 24.9494C6.19954 25.8321 6.9151 26.5477 7.79778 26.5477C8.68046 26.5477 9.39601 25.8321 9.39601 24.9494C9.39601 24.0668 8.68046 23.3512 7.79778 23.3512C6.9151 23.3512 6.19954 24.0668 6.19954 24.9494Z" fill="black"/>
<path d="M39.8956 24.9494C39.8956 27.6536 37.7035 29.8457 34.9993 29.8457C32.2952 29.8457 30.1031 27.6536 30.1031 24.9494C30.1031 22.2453 32.2952 20.0532 34.9993 20.0532C37.7035 20.0532 39.8956 22.2453 39.8956 24.9494ZM33.4011 24.9494C33.4011 25.8321 34.1167 26.5477 34.9993 26.5477C35.882 26.5477 36.5976 25.8321 36.5976 24.9494C36.5976 24.0668 35.882 23.3512 34.9993 23.3512C34.1167 23.3512 33.4011 24.0668 33.4011 24.9494Z" fill="black"/>
<circle cx="34.818" cy="25.0254" r="1.81344" fill="white"/>
<circle cx="7.61644" cy="25.0254" r="1.81344" fill="white"/>
<path d="M51.85 10.364C53.182 10.364 54.346 10.628 55.342 11.156C56.338 11.684 57.106 12.428 57.646 13.388C58.198 14.336 58.474 15.434 58.474 16.682C58.474 17.918 58.198 19.016 57.646 19.976C57.106 20.936 56.332 21.68 55.324 22.208C54.328 22.736 53.17 23 51.85 23H47.116V10.364H51.85ZM51.652 20.336C52.816 20.336 53.722 20.018 54.37 19.382C55.018 18.746 55.342 17.846 55.342 16.682C55.342 15.518 55.018 14.612 54.37 13.964C53.722 13.316 52.816 12.992 51.652 12.992H50.194V20.336H51.652ZM63.2721 10.364V23H60.1941V10.364H63.2721ZM73.8907 14.36C73.6627 13.94 73.3327 13.622 72.9007 13.406C72.4807 13.178 71.9827 13.064 71.4067 13.064C70.4107 13.064 69.6127 13.394 69.0127 14.054C68.4127 14.702 68.1127 15.572 68.1127 16.664C68.1127 17.828 68.4247 18.74 69.0487 19.4C69.6847 20.048 70.5547 20.372 71.6587 20.372C72.4147 20.372 73.0507 20.18 73.5667 19.796C74.0947 19.412 74.4787 18.86 74.7187 18.14H70.8127V15.872H77.5087V18.734C77.2807 19.502 76.8907 20.216 76.3387 20.876C75.7987 21.536 75.1087 22.07 74.2687 22.478C73.4287 22.886 72.4807 23.09 71.4247 23.09C70.1767 23.09 69.0607 22.82 68.0767 22.28C67.1047 21.728 66.3427 20.966 65.7907 19.994C65.2507 19.022 64.9807 17.912 64.9807 16.664C64.9807 15.416 65.2507 14.306 65.7907 13.334C66.3427 12.35 67.1047 11.588 68.0767 11.048C69.0487 10.496 70.1587 10.22 71.4067 10.22C72.9187 10.22 74.1907 10.586 75.2227 11.318C76.2667 12.05 76.9567 13.064 77.2927 14.36H73.8907ZM82.2917 10.364V23H79.2137V10.364H82.2917ZM91.8483 23L87.6003 17.42V23H84.5223V10.364H87.6003V15.908L91.8123 10.364H95.4303L90.5343 16.556L95.6103 23H91.8483ZM103.049 23.126C101.861 23.126 100.769 22.85 99.773 22.298C98.789 21.746 98.003 20.978 97.415 19.994C96.839 18.998 96.551 17.882 96.551 16.646C96.551 15.41 96.839 14.3 97.415 13.316C98.003 12.332 98.789 11.564 99.773 11.012C100.769 10.46 101.861 10.184 103.049 10.184C104.237 10.184 105.323 10.46 106.307 11.012C107.303 11.564 108.083 12.332 108.647 13.316C109.223 14.3 109.511 15.41 109.511 16.646C109.511 17.882 109.223 18.998 108.647 19.994C108.071 20.978 107.291 21.746 106.307 22.298C105.323 22.85 104.237 23.126 103.049 23.126ZM103.049 20.318C104.057 20.318 104.861 19.982 105.461 19.31C106.073 18.638 106.379 17.75 106.379 16.646C106.379 15.53 106.073 14.642 105.461 13.982C104.861 13.31 104.057 12.974 103.049 12.974C102.029 12.974 101.213 13.304 100.601 13.964C100.001 14.624 99.701 15.518 99.701 16.646C99.701 17.762 100.001 18.656 100.601 19.328C101.213 19.988 102.029 20.318 103.049 20.318ZM120.313 10.364V12.83H116.965V23H113.887V12.83H110.539V10.364H120.313Z" fill="black"/>
</svg>
